#!OML:ASF X:\für Bonn\!DataBase\2005_08_12_Daniel\c3d\Daniel.ASF
:FULLY-SPECIFIED
:DEGREES
143
root 2.24746 17.603 18.489 -4.68018 -348.638 361.634
lowerback 5.11791 2.49432 2.39921
upperback -0.284424 3.30429 -6.85259
thorax -2.62482 1.59165 -8.80337
lowerneck 1.59655 -3.45767 -0.496321
upperneck 9.00855 -4.84352 3.15238
head 2.6819 -2.33274 1.00061
rclavicle 3.0911e-014 -2.22639e-014
rhumerus 58.7294 5.86156 -50.5708
rradius 20.8976
rwrist 16.0834
rhand 8.49799 9.17106
rfingers 7.12502
rthumb 33.7004 -17.6787
lclavicle 3.0911e-014 -2.22639e-014
lhumerus -40.7032 45.9768 54.1538
lradius 15.009
lwrist -48.439
lhand -10.9289 -5.99107
lfingers 7.12502
lthumb 15.089 23.439
rfemur 6.34898 16.2283 19.0325
rtibia 18.9512
rfoot -26.4864 -23.8275
rtoes -11.7739
lfemur -3.24965 -18.7066 -21.9821
ltibia 29.1211
lfoot -20.2149 2.75848
ltoes -13.4504
144
root 2.24916 17.6034 18.4871 -4.66067 -348.673 361.649
lowerback 5.11659 2.48785 2.35951
upperback -0.300591 3.29254 -6.83867
thorax -2.64597 1.58508 -8.76486
lowerneck 1.61418 -3.43983 -0.473069
upperneck 9.01746 -4.81518 3.0903
head 2.67828 -2.31963 0.977511
rclavicle 8.94531e-015 2.8625e-014
rhumerus 58.7099 6.01836 -50.1618
rradius 21.0549
rwrist 16.3
rhand 7.95043 9.43001
rfingers 7.12502
rthumb 33.1799 -17.5321
lclavicle 8.94531e-015 2.8625e-014
lhumerus -41.5037 46.6428 53.1713
lradius 14.8793
lwrist -49.4261
lhand -10.8122 -5.96286
lfingers 7.12502
lthumb 15.2014 23.4587
rfemur 6.33897 16.3075 19.0218
rtibia 18.9404
rfoot -26.5023 -23.8637
rtoes -11.7608
lfemur -3.26516 -18.7165 -22.0058
ltibia 29.1208
lfoot -20.2259 2.80663
ltoes -13.4483
145
root 2.25199 17.604 18.4851 -4.63509 -348.72 361.652
lowerback 5.09818 2.48218 2.33161
upperback -0.313994 3.28311 -6.8148
thorax -2.65411 1.58006 -8.72126
lowerneck 1.63221 -3.42118 -0.454145
upperneck 9.01107 -4.78652 3.04418
head 2.67013 -2.30626 0.960366
rclavicle 6.06293e-014 -7.63333e-014
rhumerus 58.6928 6.1791 -49.7098
rradius 21.2496
rwrist 16.4746
rhand 7.44576 9.72156
rfingers 7.12502
rthumb 32.6999 -17.3415
lclavicle 6.06293e-014 -7.63333e-014
lhumerus -42.3521 47.3163 52.1508
lradius 14.7698
lwrist -50.4746
lhand -10.7029 -5.93444
lfingers 7.12502
lthumb 15.3066 23.4791
rfemur 6.31461 16.416 19.0176
rtibia 18.9285
rfoot -26.5318 -23.8977
rtoes -11.7921
lfemur -3.2884 -18.7139 -22.0106
ltibia 29.1206
lfoot -20.2399 2.83898
ltoes -13.4952
146
root 2.25355 17.6041 18.4834 -4.63201 -348.762 361.638
lowerback 5.10009 2.47397 2.31363
upperback -0.323417 3.27087 -6.78794
thorax -2.6696 1.57335 -8.68119
lowerneck 1.63661 -3.40023 -0.447471
upperneck 9.01777 -4.75669 3.01825
head 2.66988 -2.29187 0.951544
rclavicle -3.79679e-014 2.06736e-014
rhumerus 58.6671 6.3079 -49.3766
rradius 21.4236
rwrist 16.717
rhand 6.91089 10.0787
rfingers 7.12502
rthumb 32.1909 -17.0888
lclavicle -3.79679e-014 2.06736e-014
lhumerus -43.2776 48.0542 50.9907
lradius 14.6145
lwrist -51.6486
lhand -10.6654 -5.93561
lfingers 7.12502
lthumb 15.3428 23.4752
rfemur 6.31635 16.4855 19.0395
rtibia 18.9148
rfoot -26.5473 -23.925
rtoes -11.7904
lfemur -3.2895 -18.7282 -22.0029
ltibia 29.1201
lfoot -20.2455 2.89243
ltoes -13.4491
147
root 2.25555 17.6036 18.4821 -4.61235 -348.816 361.652
lowerback 5.07919 2.47004 2.28466
upperback -0.329089 3.26377 -6.78253
thorax -2.66684 1.57007 -8.65682
lowerneck 1.62978 -3.39039 -0.392246
upperneck 9.01166 -4.74002 2.9665
head 2.66537 -2.28324 0.925745
rclavicle -6.58971e-014 3.97569e-014
rhumerus 58.6282 6.35695 -49.218
rradius 21.5802
rwrist 17.1189
rhand 6.40221 10.4496
rfingers 7.12502
rthumb 31.7065 -16.8148
lclavicle -6.58971e-014 3.97569e-014
lhumerus -44.0895 48.6303 49.9708
lradius 14.501
lwrist -52.6353
lhand -10.6578 -5.87874
lfingers 7.12502
lthumb 15.3501 23.5315
rfemur 6.30313 16.6052 19.0368
rtibia 18.9015
rfoot -26.5693 -23.9791
rtoes -11.7646
lfemur -3.30114 -18.73 -22.0253
ltibia 29.1184
lfoot -20.2474 2.95144
ltoes -13.4497
148
root 2.25778 17.6037 18.4811 -4.60959 -348.873 361.638
lowerback 5.07861 2.46045 2.27853
upperback -0.34439 3.25016 -6.75749
thorax -2.6865 1.56222 -8.62573
lowerneck 1.6367 -3.37637 -0.377106
upperneck 9.02136 -4.71937 2.93669
head 2.66553 -2.27326 0.914079
rclavicle 5.46658e-015 1.59028e-015
rhumerus 58.5679 6.47181 -48.9365
rradius 21.794
rwrist 17.4038
rhand 5.9093 10.7711
rfingers 7.12502
rthumb 31.2369 -16.5849
lclavicle 5.46658e-015 1.59028e-015
lhumerus -45.0362 49.2732 48.8125
lradius 14.4005
lwrist -53.7135
lhand -10.6426 -5.77477
lfingers 7.12502
lthumb 15.3648 23.6343
rfemur 6.30884 16.6939 19.0559
rtibia 18.885
rfoot -26.5961 -23.9879
rtoes -11.702
lfemur -3.29916 -18.7195 -22.017
ltibia 29.1188
lfoot -20.2571 2.98192
ltoes -13.3946
149
root 2.25977 17.6044 18.4798 -4.58483 -348.942 361.641
lowerback 5.05151 2.45697 2.24462
upperback -0.351869 3.24379 -6.7275
thorax -2.68367 1.55936 -8.57136
lowerneck 1.61326 -3.36197 -0.401366
upperneck 9.02743 -4.69975 2.92886
head 2.67185 -2.26426 0.915692
rclavicle 4.85035e-014 -6.36111e-015
rhumerus 58.5055 6.54447 -48.7419
rradius 22.0338
rwrist 17.6766
rhand 5.43804 11.0274
rfingers 7.12502
rthumb 30.7877 -16.4143
lclavicle 4.85035e-014 -6.36111e-015
lhumerus -45.879 49.8137 47.7941
lradius 14.2919
lwrist -54.6309
lhand -10.6934 -5.66774
lfingers 7.12502
lthumb 15.3158 23.7451
rfemur 6.28322 16.8097 19.0578
rtibia 18.8718
rfoot -26.6036 -24.0468
rtoes -11.7136
lfemur -3.31431 -18.7314 -22.0253
ltibia 29.1158
lfoot -20.2654 3.03298
ltoes -13.3302
150
root 2.26194 17.6039 18.4787 -4.55977 -349.005 361.642
lowerback 5.03413 2.44717 2.21707
upperback -0.378892 3.22817 -6.70684
thorax -2.70731 1.55039 -8.5319
lowerneck 1.62134 -3.34983 -0.370246
upperneck 9.04654 -4.68176 2.89579
head 2.67446 -2.25507 0.900176
rclavicle -2.56432e-014 4.13472e-014
rhumerus 58.4178 6.61196 -48.6886
rradius 22.2689
rwrist 18.0361
rhand 4.94692 11.242
rfingers 7.12502
rthumb 30.3193 -16.287
lclavicle -2.56432e-014 4.13472e-014
lhumerus -46.8635 50.4152 46.5827
lradius 14.1827
lwrist -55.7098
lhand -10.7568 -5.52119
lfingers 7.12502
lthumb 15.2547 23.8963
rfemur 6.26822 16.939 19.065
rtibia 18.856
rfoot -26.6604 -24.0789
rtoes -11.6916
lfemur -3.33694 -18.7009 -22.0257
ltibia 29.1157
lfoot -20.268 3.06686
ltoes -13.3307
151
root 2.26416 17.6042 18.4773 -4.55574 -349.088 361.629
lowerback 5.03737 2.4447 2.20734
upperback -0.392759 3.224 -6.67714
thorax -2.72648 1.54743 -8.49438
lowerneck 1.58256 -3.33946 -0.39356
upperneck 9.07561 -4.66952 2.90389
head 2.69195 -2.24889 0.906242
rclavicle 3.28989e-014 -1.27222e-014
rhumerus 58.3046 6.67813 -48.5432
rradius 22.5867
rwrist 18.2847
rhand 4.47441 11.3768
rfingers 7.12502
rthumb 29.8685 -16.2342
lclavicle 3.28989e-014 -1.27222e-014
lhumerus -47.6575 50.8297 45.6187
lradius 14.0872
lwrist -56.5022
lhand -10.8321 -5.33015
lfingers 7.12502
lthumb 15.1822 24.0929
rfemur 6.24968 17.0022 19.0714
rtibia 18.8478
rfoot -26.6349 -24.0822
rtoes -11.7197
lfemur -3.32851 -18.7047 -22.023
ltibia 29.1119
lfoot -20.2692 3.12213
ltoes -13.2058
152
root 2.26647 17.6037 18.4754 -4.5332 -349.172 361.631
lowerback 5.03612 2.43283 2.18619
upperback -0.422709 3.20553 -6.66265
thorax -2.76196 1.53649 -8.46643
lowerneck 1.55947 -3.32719 -0.370236
upperneck 9.11444 -4.65293 2.88116
head 2.70746 -2.23989 0.894751
rclavicle -7.95139e-016 0
rhumerus 58.1709 6.69959 -48.6144
rradius 22.9061
rwrist 18.6502
rhand 3.98018 11.4948
rfingers 7.12502
rthumb 29.3968 -16.2
lclavicle -7.95139e-016 0
lhumerus -48.5998 51.3428 44.4391
lradius 13.9811
lwrist -57.4071
lhand -10.9646 -5.17613
lfingers 7.12502
lthumb 15.0546 24.2565
rfemur 6.21594 17.106 19.0644
rtibia 18.8488
rfoot -26.6744 -24.0874
rtoes -11.6318
lfemur -3.33993 -18.7108 -22.0312
ltibia 29.1057
lfoot -20.2765 3.18176
ltoes -13.1414
